<svg xmlns="http://www.w3.org/2000/svg" width="400" height="396.33"><path d="M297.4 27.064c-9.736 9.509-62.121 66.897-69.418 76.048l-5.964 7.478V164.083l-79.816 79.954c-88.616 88.768-86.957 86.604-75.313 98.248 11.644 11.645 9.48 13.304 98.249-75.313l79.953-79.816h25.282c30.866 0 24.827 3.286 71.739-39.04 44.259-39.932 45.057-40.748 45.007-46.026-.043-4.664-75.303-81.907-79.804-81.907-1.579 0-6.04 3.097-9.915 6.881m8.802 28.635c1.632 1.966-3.657 8.558-25.228 31.447-29.202 30.984-32.405 33.716-35.682 30.439-3.136-3.136.44-7.747 29.129-37.563 26.227-27.257 28.135-28.717 31.781-24.323M57.798 61.292C38.915 67.289 9.348 87.534 9.234 94.544c-.039 2.457 15.375 19.108 45.437 49.083 52.13 51.977 51.307 51.496 63.898 37.386l7.119-7.979 18.815 18.503 18.814 18.504 11.434-11.435 11.435-11.434-18.267-18.335-18.266-18.336 7.742-7.889c12.954-13.198 12.6-13.959-22.991-49.424-16.904-16.843-33.059-31.49-35.9-32.548-7.007-2.611-31.678-2.215-40.706.652m264.766 12.466c.746 3.844-54.055 60.187-58.54 60.187-8.6 0-3.014-8.181 24.72-36.203 26.838-27.119 32.441-31.092 33.82-23.984m16.457 16.195c.689 3.58-57.236 61.162-60.449 60.092-7.449-2.481-3.363-8.257 25.331-35.8 27.492-26.391 33.865-30.798 35.118-24.292m16.428 15.94c1.449 3.777-55.154 59.245-60.458 59.245-7.017 0-2.636-7.417 13.725-23.235 43.644-42.199 44.195-42.624 46.733-36.01m-214.586 22.632c.7 3.634-33.4 37.109-36.984 36.306-5.148-1.153-34.154-27.57-34.154-31.105 0-6.508 6.451-3.528 18.348 8.476 14.79 14.922 14.516 14.946 32.154-2.798 14.003-14.088 19.464-16.967 20.636-10.879m70.075 105.492-11.83 11.935 50.514 50.419c56.094 55.988 57.679 57.045 68.81 45.914 10.717-10.717 9.432-12.743-41.162-64.918-25.116-25.9-47.654-48.935-50.084-51.188l-4.419-4.097-11.829 11.935M84.331 325.6c4.874 5.873-2.285 14.895-8.643 10.891-6.353-4.001-4.09-13.555 3.211-13.555 1.771 0 4.215 1.199 5.432 2.664"/></svg>